<svg width="40" height="40" viewBox="0 0 40 40" fill="none" xmlns="http://www.w3.org/2000/svg">
<g clip-path="url(#clip0_1_615)">
<circle cx="20" cy="20" r="20" fill="#313131"/>
<path d="M-5.88094e-06 20C-6.22675e-06 23.9556 1.17297 27.8224 3.3706 31.1114C5.56823 34.4004 8.6918 36.9638 12.3463 38.4776C16.0008 39.9913 20.0222 40.3874 23.9018 39.6157C27.7814 38.844 31.3451 36.9392 34.1421 34.1421C36.9392 31.3451 38.844 27.7814 39.6157 23.9018C40.3874 20.0222 39.9913 16.0008 38.4776 12.3463C36.9638 8.69181 34.4004 5.56824 31.1114 3.37061C27.8224 1.17298 23.9556 -1.40264e-06 20 -1.74846e-06C14.6974 0.00573128 9.61368 2.11471 5.86419 5.86419C2.11471 9.61368 0.00572807 14.6974 -5.88094e-06 20ZM26.6667 20C26.6679 21.22 26.222 22.3982 25.4133 23.3117C24.9283 23.8567 24.4567 24.3733 24.1183 24.7117L19.4117 29.5C19.098 29.7947 18.6825 29.9566 18.2522 29.9519C17.8218 29.9471 17.41 29.7761 17.1029 29.4746C16.7958 29.1731 16.6172 28.7645 16.6045 28.3343C16.5919 27.9041 16.7461 27.4857 17.035 27.1667L21.75 22.3667C22.0617 22.0533 22.485 21.5867 22.9167 21.1017C23.1852 20.7972 23.3334 20.4052 23.3334 19.9992C23.3334 19.5932 23.1852 19.2011 22.9167 18.8967C22.4867 18.4133 22.0633 17.9467 21.7617 17.6433L17.035 12.8333C16.7461 12.5143 16.5919 12.0959 16.6045 11.6657C16.6172 11.2355 16.7958 10.8269 17.1029 10.5254C17.41 10.2239 17.8218 10.0529 18.2522 10.0481C18.6825 10.0434 19.098 10.2053 19.4117 10.5L24.1267 15.2967C24.46 15.63 24.9267 16.1417 25.4083 16.685C26.22 17.5984 26.6678 18.7781 26.6667 20Z" fill="#F9F9F9"/>
</g>
<defs>
<clipPath id="clip0_1_615">
<rect width="40" height="40" fill="white" transform="translate(40 40) rotate(-180)"/>
</clipPath>
</defs>
</svg>
