<svg width="40" height="40" viewBox="0 0 40 40" fill="none" xmlns="http://www.w3.org/2000/svg">
<g id="Frame" clip-path="url(#clip0_1_627)">
<circle id="Ellipse 1" cx="20" cy="20" r="20" transform="rotate(180 20 20)" fill="#313131"/>
<g id="Group">
<path id="Vector" d="M40 20C40 16.0444 38.827 12.1776 36.6294 8.8886C34.4318 5.59962 31.3082 3.03617 27.6537 1.52242C23.9992 0.00866572 19.9778 -0.387401 16.0982 0.384303C12.2186 1.15601 8.65492 3.06082 5.85787 5.85787C3.06082 8.65492 1.15601 12.2186 0.384303 16.0982C-0.387401 19.9778 0.00866572 23.9992 1.52242 27.6537C3.03617 31.3082 5.59962 34.4318 8.8886 36.6294C12.1776 38.827 16.0444 40 20 40C25.3026 39.9943 30.3863 37.8853 34.1358 34.1358C37.8853 30.3863 39.9943 25.3026 40 20ZM13.3333 20C13.3321 18.78 13.778 17.6018 14.5867 16.6883C15.0717 16.1433 15.5433 15.6267 15.8817 15.2883L20.5883 10.5C20.902 10.2053 21.3175 10.0434 21.7479 10.0481C22.1782 10.0529 22.59 10.2239 22.8971 10.5254C23.2042 10.8269 23.3828 11.2355 23.3955 11.6657C23.4081 12.0959 23.2539 12.5143 22.965 12.8333L18.25 17.6333C17.9383 17.9467 17.515 18.4133 17.0833 18.8983C16.8148 19.2028 16.6666 19.5948 16.6666 20.0008C16.6666 20.4068 16.8148 20.7989 17.0833 21.1033C17.5133 21.5867 17.9367 22.0533 18.2383 22.3567L22.965 27.1667C23.2539 27.4857 23.4081 27.9041 23.3955 28.3343C23.3828 28.7645 23.2042 29.1731 22.8971 29.4746C22.59 29.7761 22.1782 29.9471 21.7479 29.9519C21.3175 29.9566 20.902 29.7947 20.5883 29.5L15.8733 24.7033C15.54 24.37 15.0733 23.8583 14.5917 23.315C13.78 22.4016 13.3322 21.2219 13.3333 20Z" fill="#F9F9F9"/>
</g>
</g>
<defs>
<clipPath id="clip0_1_627">
<rect width="40" height="40" fill="white"/>
</clipPath>
</defs>
</svg>
